<svg width="50" height="32" viewBox="0 0 50 32" fill="none" xmlns="http://www.w3.org/2000/svg">
    <g clip-path="url(#clip0_3439_66027)">
        <path
            d="M15.9559 20.4155C17.9504 18.3269 20.0578 15.724 21.6698 13.1086C23.2315 10.5684 24.2601 8.14113 24.2099 6.35986C20.7791 7.14387 17.825 7.83379 15.2597 8.47354C13.0081 9.03176 11.0198 9.55234 9.2511 10.0102C8.99395 10.0792 8.63017 10.4179 8.41692 10.7754C8.20994 11.1392 8.2413 11.39 8.49218 11.3273C9.95357 10.9886 10.7815 10.8005 11.647 10.606C12.5627 10.3991 13.5286 10.1921 15.5545 9.75931C15.9434 9.67778 16.0625 9.97256 15.8305 10.4242C15.5859 10.882 15.0716 11.3148 14.689 11.3775C12.6066 11.7476 10.7438 12.0862 9.08176 12.4061C8.81833 12.4563 8.42319 12.8201 8.1974 13.2089C7.97787 13.5978 8.00924 13.8926 8.26639 13.855C9.0504 13.7358 9.88458 13.6104 10.7689 13.4786C11.0763 13.4347 11.1453 13.7546 10.9069 14.1999C10.6623 14.6452 10.2107 15.0467 9.89712 15.078C8.73679 15.1972 7.658 15.3101 6.66074 15.423C5.71994 15.5296 4.84812 15.6362 4.02021 15.7429C3.82578 15.7679 3.48709 16.0878 3.27384 16.4516C3.06059 16.8216 3.04177 17.1102 3.2362 17.0976C4.54079 16.9973 5.98963 16.8906 7.60155 16.8028C9.42045 16.7025 11.4902 16.6209 13.8485 16.5457C14.2625 16.5331 14.3879 16.9722 14.1119 17.5304C13.836 18.0823 13.2652 18.5402 12.8575 18.5276C11.5718 18.49 10.3738 18.4586 9.25737 18.4461C8.22876 18.4336 7.25659 18.4336 6.34714 18.4336C6.08372 18.4336 5.67603 18.7973 5.42515 19.2427C5.18054 19.688 5.18054 20.0706 5.43769 20.0894C5.87047 20.1145 6.32205 20.1458 6.78618 20.1772C7.0747 20.196 7.09979 20.6225 6.83636 21.1305C6.56666 21.6323 6.1088 22.0274 5.82029 21.9835C4.9422 21.8644 4.10802 21.7515 3.33029 21.6574C2.60273 21.5696 1.90653 21.488 1.25424 21.4191C1.0598 21.394 0.714841 21.7076 0.476503 22.1215C0.238165 22.5292 0.194261 22.8993 0.382422 22.9369C1.39222 23.1313 2.4961 23.3508 3.70661 23.608C5.0551 23.8965 6.56039 24.2415 8.2413 24.6366C6.3785 25.9851 4.01394 27.2458 2.44593 27.3775C1.00963 27.4967 0.250709 26.6876 1.04099 24.2164C-0.871988 28.4563 -0.0127172 30.225 2.55882 29.7922C5.53805 29.2905 10.7815 25.8409 15.9559 20.4281V20.4155Z"
            fill="#34D6B7"></path>
        <path
            d="M6.54178 11.7915C6.71113 11.7539 6.88047 11.71 7.04982 11.6661C7.28189 11.6096 7.63312 11.2772 7.8401 10.9197C8.04708 10.5685 8.02199 10.3301 7.78365 10.3928C7.60803 10.443 7.43242 10.4869 7.26307 10.5371C7.04355 10.5998 6.70486 10.9197 6.50415 11.2584C6.30345 11.6033 6.31599 11.8417 6.53551 11.7915H6.54178Z"
            fill="#34D6B7"></path>
        <path
            d="M6.10241 14.2062C6.27802 14.1749 6.45364 14.1498 6.63553 14.1184C6.87387 14.0808 7.25646 13.7296 7.47599 13.347C7.69551 12.9644 7.67042 12.6947 7.42581 12.7386C7.24392 12.7762 7.05576 12.8138 6.88014 12.8452C6.65435 12.8891 6.29057 13.2278 6.08359 13.5978C5.87034 13.9679 5.87661 14.2376 6.10241 14.2V14.2062Z"
            fill="#34D6B7"></path>
        <path
            d="M3.4618 19.9826C3.63115 19.9952 3.80677 20.0014 3.98866 20.0077C4.22072 20.0203 4.61586 19.669 4.86047 19.23C5.09881 18.7909 5.09881 18.4397 4.86047 18.4397C4.67858 18.4397 4.49669 18.446 4.32735 18.4522C4.10155 18.4522 3.72523 18.7972 3.49316 19.2112C3.2611 19.6251 3.24228 19.9701 3.4618 19.9826Z"
            fill="#34D6B7"></path>
        <path
            d="M45.1523 5.41276C43.0324 5.6072 41.7842 4.76674 42.1794 3.53742C42.2985 3.17364 41.9034 2.94158 41.3201 3.03566C39.8587 3.28027 38.4475 3.52488 37.1115 3.76321C36.8795 4.38415 36.6474 5.0239 36.4091 5.66365C36.3463 5.83299 36.0892 6.00234 35.832 6.03997C35.7756 6.04624 35.7129 6.05251 35.669 6.05878C35.4306 6.09642 35.2989 5.98352 35.3616 5.82045C35.6 5.19951 35.832 4.57231 36.0704 3.95765C33.7246 4.39669 31.5608 4.82319 29.5725 5.2246C30.0429 1.33593 27.0951 1.24185 23.727 2.48999C20.7791 3.58133 17.3859 5.77027 15.2095 7.57035C22.943 2.45236 26.1982 3.09838 25.5521 7.11876C24.7932 11.8416 19.1045 20.196 12.1362 25.615C13.8861 26.0854 15.8556 26.6186 18.032 27.2646C20.5094 27.9984 23.3068 28.9079 26.5369 29.9867C26.8693 29.027 27.208 28.0925 27.5404 27.1517C27.6282 26.9071 27.8853 26.7565 28.13 26.8193C28.1739 26.8318 28.2366 26.8506 28.2993 26.8632C28.5627 26.9322 28.6944 27.2019 28.6066 27.4527C28.2742 28.4124 27.9418 29.3783 27.6031 30.3567C28.983 30.8334 30.4632 31.3665 31.9998 31.931C32.627 32.1693 33.3044 31.8745 33.4863 31.285C34.0633 29.4034 36.1958 28.4186 38.4663 29.1211C39.1813 29.3406 39.9026 29.0208 40.0719 28.4061C40.8371 25.5962 41.5772 22.893 42.286 20.2901C42.4302 19.7569 41.9724 19.2489 41.2825 19.1486C39.0559 18.835 37.8077 17.361 38.2844 15.8495C38.7485 14.3693 40.7368 13.2403 42.9195 13.3406C43.6031 13.372 44.2742 12.9957 44.4059 12.5127C45.0081 10.2924 45.5914 8.15365 46.1621 6.09015C46.2813 5.66365 45.8297 5.36886 45.1649 5.42531L45.1523 5.41276ZM30.5949 21.7577C30.2248 22.8114 29.8485 23.884 29.4659 24.969C29.3781 25.2136 29.1021 25.3579 28.8387 25.2952C28.7823 25.2826 28.7195 25.2638 28.6694 25.2575C28.4247 25.2011 28.3118 24.9565 28.3997 24.7244C28.7823 23.6582 29.1586 22.6107 29.5286 21.5821C29.6102 21.3563 29.8673 21.1932 30.1057 21.2309C30.1558 21.2309 30.2123 21.2497 30.275 21.256C30.5384 21.2999 30.6764 21.5257 30.5949 21.764V21.7577ZM32.4451 16.5582C32.1064 17.5178 31.7552 18.5088 31.3977 19.4998C31.3162 19.7256 31.0402 19.8824 30.783 19.851C30.7203 19.8448 30.6576 19.8322 30.6137 19.8322C30.3754 19.8071 30.2499 19.6001 30.3314 19.3743C30.689 18.4022 31.0402 17.4363 31.3789 16.4955C31.4541 16.2885 31.7113 16.1317 31.9434 16.138C31.9935 16.1442 32.05 16.138 32.1127 16.1505C32.3699 16.1693 32.5141 16.3575 32.4389 16.5645L32.4451 16.5582ZM34.1637 11.7977C33.8438 12.6821 33.5177 13.579 33.1852 14.4947C33.11 14.7017 32.8465 14.8647 32.5831 14.8585C32.5267 14.8585 32.4639 14.8585 32.4138 14.8585C32.1754 14.8585 32.0437 14.6829 32.119 14.4821C32.4514 13.5852 32.7775 12.7072 33.1037 11.8416C33.1727 11.6597 33.4173 11.4904 33.6556 11.4841C33.7058 11.4778 33.7623 11.4778 33.825 11.4716C34.0884 11.459 34.2327 11.6158 34.1637 11.8103V11.7977ZM35.763 7.40728C35.462 8.22892 35.1609 9.05055 34.8536 9.89101C34.7846 10.0792 34.5212 10.2485 34.264 10.2611C34.2013 10.2611 34.1449 10.2673 34.0947 10.2736C33.8563 10.2861 33.7246 10.1482 33.7936 9.96627C34.101 9.13836 34.402 8.32927 34.7093 7.52645C34.7783 7.35083 35.0167 7.18775 35.255 7.15012C35.3052 7.15012 35.3616 7.13758 35.4244 7.13758C35.6752 7.11249 35.8258 7.23166 35.763 7.40728Z"
            fill="#34D6B7"></path>
    </g>
    <defs>
        <clipPath id="clip0_3439_66027">
            <rect width="50" height="32" fill="white"></rect>
        </clipPath>
    </defs>
</svg>