<svg xmlns="http://www.w3.org/2000/svg" width="24" height="24" viewBox="0 0 24 24" fill="none">
  <path d="M2 10H22" stroke="#53F6C6" stroke-width="1.5" stroke-miterlimit="10" stroke-linecap="round" stroke-linejoin="round"/>
  <path d="M11.5483 20.4978H6.43829C2.88829 20.4978 1.98828 19.6178 1.98828 16.1078V7.88782C1.98828 4.70782 2.72831 3.68782 5.51831 3.52782C5.79831 3.51782 6.10829 3.50781 6.43829 3.50781H17.5483C21.0983 3.50781 21.9983 4.38781 21.9983 7.89781V12.3078" stroke="#53F6C6" stroke-width="1.5" stroke-linecap="round" stroke-linejoin="round"/>
  <path d="M6 16H10" stroke="#53F6C6" stroke-width="1.5" stroke-miterlimit="10" stroke-linecap="round" stroke-linejoin="round"/>
  <path d="M22 18C22 18.75 21.79 19.46 21.42 20.06C20.73 21.22 19.46 22 18 22C16.54 22 15.27 21.22 14.58 20.06C14.21 19.46 14 18.75 14 18C14 15.79 15.79 14 18 14C20.21 14 22 15.79 22 18Z" stroke="#53F6C6" stroke-width="1.5" stroke-miterlimit="10" stroke-linecap="round" stroke-linejoin="round"/>
  <path d="M16.4414 17.9995L17.4314 18.9895L19.5614 17.0195" stroke="#53F6C6" stroke-width="1.5" stroke-linecap="round" stroke-linejoin="round"/>
</svg>
