<svg width="25" height="24" viewBox="0 0 25 24" fill="none" xmlns="http://www.w3.org/2000/svg">
<rect x="1.54883" y="1.5" width="21.6829" height="21" rx="6" fill="url(#paint0_radial_406_285798)"/>
<rect x="1.54883" y="1.5" width="21.6829" height="21" rx="6" fill="url(#paint1_radial_406_285798)"/>
<rect x="1.54883" y="1.5" width="21.6829" height="21" rx="6" fill="url(#paint2_radial_406_285798)"/>
<path d="M17.8111 7.875C17.8111 8.49632 17.2911 9 16.6495 9C16.008 9 15.4879 8.49632 15.4879 7.875C15.4879 7.25368 16.008 6.75 16.6495 6.75C17.2911 6.75 17.8111 7.25368 17.8111 7.875Z" fill="white"/>
<path fill-rule="evenodd" clip-rule="evenodd" d="M12.3904 15.75C14.5288 15.75 16.2623 14.0711 16.2623 12C16.2623 9.92893 14.5288 8.25 12.3904 8.25C10.252 8.25 8.51844 9.92893 8.51844 12C8.51844 14.0711 10.252 15.75 12.3904 15.75ZM12.3904 14.25C13.6734 14.25 14.7136 13.2426 14.7136 12C14.7136 10.7574 13.6734 9.75 12.3904 9.75C11.1073 9.75 10.0672 10.7574 10.0672 12C10.0672 13.2426 11.1073 14.25 12.3904 14.25Z" fill="white"/>
<path fill-rule="evenodd" clip-rule="evenodd" d="M4.64648 11.7C4.64648 9.17976 4.64648 7.91965 5.15291 6.95704C5.59837 6.11031 6.30917 5.4219 7.18343 4.99047C8.17734 4.5 9.47844 4.5 12.0806 4.5H12.7001C15.3023 4.5 16.6034 4.5 17.5973 4.99047C18.4716 5.4219 19.1824 6.11031 19.6279 6.95704C20.1343 7.91965 20.1343 9.17976 20.1343 11.7V12.3C20.1343 14.8202 20.1343 16.0804 19.6279 17.043C19.1824 17.8897 18.4716 18.5781 17.5973 19.0095C16.6034 19.5 15.3023 19.5 12.7001 19.5H12.0806C9.47844 19.5 8.17734 19.5 7.18343 19.0095C6.30917 18.5781 5.59837 17.8897 5.15291 17.043C4.64648 16.0804 4.64648 14.8202 4.64648 12.3V11.7ZM12.0806 6H12.7001C14.0268 6 14.9286 6.00117 15.6257 6.05633C16.3047 6.11006 16.652 6.20745 16.8942 6.32698C17.4771 6.6146 17.9509 7.07354 18.2479 7.63803C18.3713 7.87263 18.4719 8.20893 18.5273 8.86656C18.5843 9.54169 18.5855 10.4151 18.5855 11.7V12.3C18.5855 13.5849 18.5843 14.4583 18.5273 15.1334C18.4719 15.7911 18.3713 16.1274 18.2479 16.362C17.9509 16.9265 17.4771 17.3854 16.8942 17.673C16.652 17.7926 16.3047 17.8899 15.6257 17.9437C14.9286 17.9988 14.0268 18 12.7001 18H12.0806C10.754 18 9.85213 17.9988 9.15504 17.9437C8.47603 17.8899 8.12879 17.7926 7.88656 17.673C7.30372 17.3854 6.82985 16.9265 6.53288 16.362C6.40946 16.1274 6.3089 15.7911 6.25342 15.1334C6.19647 14.4583 6.19526 13.5849 6.19526 12.3V11.7C6.19526 10.4151 6.19647 9.54169 6.25342 8.86656C6.3089 8.20893 6.40946 7.87263 6.53288 7.63803C6.82985 7.07354 7.30372 6.6146 7.88656 6.32698C8.12879 6.20745 8.47603 6.11006 9.15504 6.05633C9.85213 6.00117 10.754 6 12.0806 6Z" fill="white"/>
<defs>
<radialGradient id="paint0_radial_406_285798" cx="0" cy="0" r="1" gradientUnits="userSpaceOnUse" gradientTransform="translate(9.29273 17.25) rotate(-54.5138) scale(19.3428 19.5546)">
<stop stop-color="#B13589"/>
<stop offset="0.79309" stop-color="#C62F94"/>
<stop offset="1" stop-color="#8A3AC8"/>
</radialGradient>
<radialGradient id="paint1_radial_406_285798" cx="0" cy="0" r="1" gradientUnits="userSpaceOnUse" gradientTransform="translate(8.51834 23.25) rotate(-64.4296) scale(17.0444 17.3954)">
<stop stop-color="#E0E8B7"/>
<stop offset="0.444662" stop-color="#FB8A2E"/>
<stop offset="0.71474" stop-color="#E2425C"/>
<stop offset="1" stop-color="#E2425C" stop-opacity="0"/>
</radialGradient>
<radialGradient id="paint2_radial_406_285798" cx="0" cy="0" r="1" gradientUnits="userSpaceOnUse" gradientTransform="translate(0.387244 2.25) rotate(-7.8773) scale(30.098 6.24264)">
<stop offset="0.156701" stop-color="#406ADC"/>
<stop offset="0.467799" stop-color="#6A45BE"/>
<stop offset="1" stop-color="#6A45BE" stop-opacity="0"/>
</radialGradient>
</defs>
</svg>
