<svg width="25" height="24" viewBox="0 0 25 24" fill="none" xmlns="http://www.w3.org/2000/svg">
<path d="M12.7763 2.25C6.98024 2.25 2.28027 5.97883 2.28027 10.5804C2.28027 13.5555 4.24385 16.1617 7.20104 17.6413L6.13645 21.4693C6.13645 21.4693 6.11674 21.6478 6.23108 21.7153C6.34543 21.7827 6.48343 21.7311 6.48343 21.7311C6.81463 21.6835 10.3081 19.2122 10.9192 18.7838C11.5225 18.8711 12.1494 18.9147 12.7842 18.9147C18.5803 18.9147 23.2803 15.1859 23.2803 10.5843C23.2803 5.9828 18.5724 2.25 12.7763 2.25Z" fill="black"/>
<path d="M6.9721 13.4838C6.63695 13.4838 6.36489 13.222 6.36489 12.9007V9.27898H5.41859C5.09132 9.27898 4.82715 9.0132 4.82715 8.68395C4.82715 8.35471 5.09527 8.08893 5.41859 8.08893H8.52167C8.84893 8.08893 9.1131 8.35471 9.1131 8.68395C9.1131 9.0132 8.84499 9.27898 8.52167 9.27898H7.57536V12.9007C7.57536 13.2181 7.29936 13.4838 6.96815 13.4838H6.9721ZM12.2832 13.4759C12.0309 13.4759 11.8377 13.3728 11.7785 13.2062L11.4789 12.4128H9.63357L9.33391 13.2062C9.27476 13.3728 9.08156 13.4759 8.82921 13.4759C8.69515 13.4759 8.56504 13.4481 8.44281 13.3966C8.2772 13.3172 8.11554 13.107 8.30086 12.5318L9.74791 8.69585C9.85043 8.40231 10.1619 8.10083 10.5562 8.09289C10.9505 8.08496 11.2659 8.40231 11.3645 8.69585L12.8116 12.5318C12.9969 13.107 12.8352 13.3252 12.6696 13.3966C12.5513 13.4521 12.4173 13.4759 12.2832 13.4759ZM11.1595 11.3338L10.5562 9.60426L9.95295 11.3338H11.1595ZM13.7855 13.3966C13.47 13.3966 13.2059 13.1466 13.2059 12.8412V8.69585C13.2059 8.35867 13.4819 8.08496 13.8249 8.08496C14.1679 8.08496 14.4439 8.36264 14.4439 8.69585V12.2739H15.7293C16.0448 12.2739 16.3089 12.5239 16.3089 12.8293C16.3089 13.1347 16.0487 13.3847 15.7293 13.3847L13.7855 13.3966ZM16.5416 12.865V8.69982C16.5416 8.36264 16.8176 8.08893 17.1488 8.08893C17.48 8.08893 17.756 8.36661 17.756 8.69982V10.0089L19.4514 8.30314C19.6381 8.11537 19.9909 8.13183 20.2045 8.34677C20.4052 8.54868 20.4574 8.88996 20.2479 9.10444L18.86 10.4928L20.3504 12.4763C20.5507 12.7342 20.5021 13.1359 20.2321 13.3252C19.966 13.5235 19.575 13.4574 19.3844 13.2062L17.965 11.314L17.756 11.5242V12.8531C17.756 13.6446 16.5416 13.6751 16.5416 12.865Z" fill="#FFE812"/>
</svg>
