<svg width="788" height="841" viewBox="0 0 788 841" fill="none" xmlns="http://www.w3.org/2000/svg">
    <g id="Olympic Gymnastics Arena_include bouding box">
        <g id="Group">
            <g id="Group_2">
                <path id="Vector" d="M334.639 116.282V199.222H475.862V116.282H334.639Z" fill="black" stroke="black"
                    stroke-width="0.920214" />
            </g>
            <g id="Group_3">
                <path id="Vector_2"
                    d="M546.641 300.951C548.372 305.735 549.816 310.6 550.97 315.548L609.728 300.333C608.161 293.653 606.182 286.973 603.79 280.294L546.641 300.951ZM551.465 318.27C552.455 322.64 553.197 327.052 553.691 331.505L614.182 325.073C613.192 317.156 611.914 309.775 610.346 302.931L551.465 318.27ZM614.305 301.817C616.037 309.157 617.397 316.785 618.387 324.702L688.896 317.156C687.66 306.353 685.763 295.261 683.207 283.881L614.305 301.817ZM607.873 278.933C610.099 285.365 612.078 292.127 613.81 299.22L682.464 281.407C680.402 272.748 677.805 263.883 674.671 254.811L607.873 278.933Z"
                    fill="#F6F8F9" stroke="#F6F8F9" stroke-width="0.920214" />
                <text id="1" fill="black" xml:space="preserve" style="white-space: pre" font-family="Inter"
                    font-size="18.4043" letter-spacing="0em">
                    <tspan x="617.769" y="298.628">1</tspan>
                </text>
            </g>
            <g id="Group_4">
                <path id="Vector_3"
                    d="M614.429 372.45C615.171 365.688 615.583 358.679 615.666 351.421H554.805C554.805 355.875 554.557 360.782 554.063 366.142L614.429 372.45ZM689.144 380.368C690.216 371.213 690.752 361.565 690.752 351.421H619.871C619.871 358.184 619.459 365.358 618.634 372.945L689.144 380.368ZM554.063 334.103C554.557 339.381 554.805 344.288 554.805 348.824H615.666C615.583 341.567 615.171 334.516 614.429 327.671L554.063 334.103ZM618.634 327.176C619.459 334.845 619.871 342.061 619.871 348.824H690.752C690.752 338.68 690.216 328.991 689.144 319.754L618.634 327.176Z"
                    fill="#F6F8F9" stroke="#F6F8F9" stroke-width="0.920214" />
                <text id="2" fill="black" xml:space="preserve" style="white-space: pre" font-family="Inter"
                    font-size="18.4043" letter-spacing="0em">
                    <tspan x="622.407" y="355.53">2</tspan>
                </text>
            </g>
            <g id="Group_5">
                <path id="Vector_4"
                    d="M550.97 384.573C549.816 389.521 548.372 394.428 546.641 399.294L603.79 419.952C606.182 413.272 608.161 406.592 609.728 399.912L550.97 384.573ZM610.346 397.314C611.914 390.47 613.192 383.089 614.182 375.172L553.691 368.74C553.197 373.193 552.455 377.605 551.465 381.975L610.346 397.314ZM683.207 416.24C685.763 404.943 687.66 393.851 688.896 382.965L618.387 375.543C617.397 383.378 616.037 390.965 614.305 398.304L683.207 416.24ZM674.671 445.434C677.805 436.28 680.402 427.415 682.464 418.838L613.81 400.902C612.078 408.077 610.099 414.88 607.873 421.313L674.671 445.434Z"
                    fill="#F6F8F9" stroke="#F6F8F9" stroke-width="0.920214" />
                <text id="3" fill="black" xml:space="preserve" style="white-space: pre" font-family="Inter"
                    font-size="18.4043" letter-spacing="0em">
                    <tspan x="617.769" y="412.556">3</tspan>
                </text>
            </g>
            <g id="Group_6">
                <path id="Vector_5"
                    d="M538.105 419.581C535.549 424.446 532.827 429.106 529.94 433.559L580.658 466.958C584.617 461.02 588.369 454.629 591.915 447.784L538.105 419.581ZM593.152 445.434C596.946 437.847 600.244 430.178 603.048 422.426L545.775 401.767C543.713 407.293 541.527 412.447 539.218 417.231L593.152 445.434ZM659.703 480.442C664.981 469.886 669.641 459.041 673.681 447.908L606.883 423.786C603.997 431.951 600.616 439.868 596.74 447.537L659.703 480.442ZM643.498 508.274C648.858 500.11 653.848 491.616 658.466 482.792L595.626 449.764C591.997 456.691 588.163 463.206 584.122 469.308L643.498 508.274Z"
                    fill="#F6F8F9" stroke="#F6F8F9" stroke-width="0.920214" />
                <text id="4" fill="black" xml:space="preserve" style="white-space: pre" font-family="Inter"
                    font-size="18.4043" letter-spacing="0em">
                    <tspan x="601.811" y="460.491">4</tspan>
                </text>
            </g>
            <g id="Group_7">
                <path id="Vector_6"
                    d="M505.077 462.628C501.861 465.598 498.314 468.525 494.438 471.411L531.178 519.903C536.538 515.779 541.486 511.655 546.022 507.532L505.077 462.628ZM518.684 448.527C515.138 452.815 511.262 456.897 507.056 460.773L548.001 505.8C553.856 500.358 559.546 494.379 565.071 487.863L518.684 448.527ZM568.288 490.585C563.01 496.853 557.155 502.955 550.722 508.893L598.595 561.342C607.171 553.425 615.088 545.178 622.345 536.602L568.288 490.585ZM548.743 510.625C544.043 514.995 539.053 519.201 533.776 523.242L576.576 579.897C583.75 574.454 590.389 568.888 596.492 563.198L548.743 510.625Z"
                    fill="#F6F8F9" stroke="#F6F8F9" stroke-width="0.920214" />
                <text id="5" fill="black" xml:space="preserve" style="white-space: pre" font-family="Inter"
                    font-size="18.4043" letter-spacing="0em">
                    <tspan x="558.392" y="519.681">5</tspan>
                </text>
            </g>
            <g id="Group_8">
                <path id="Vector_7"
                    d="M474.77 484.029C470.152 486.585 465.121 488.936 459.679 491.08L481.45 547.982C489.532 544.683 496.913 541.22 503.593 537.591L474.77 484.029ZM492.459 473.02C487.347 476.648 482.193 479.906 476.997 482.792L505.943 536.354C514.108 531.901 521.818 526.912 529.075 521.387L492.459 473.02ZM574.474 581.381L531.549 524.851C524.045 530.458 516.169 535.489 507.923 539.942L541.445 602.534C552.743 596.432 563.752 589.381 574.474 581.381ZM505.448 541.302C498.521 545.096 491.016 548.601 482.934 551.817L508.417 618.121C519.055 613.997 529.322 609.256 539.218 603.895L505.448 541.302Z"
                    fill="#F6F8F9" stroke="#F6F8F9" stroke-width="0.920214" />
                <text id="6" fill="black" xml:space="preserve" style="white-space: pre" font-family="Inter"
                    font-size="18.4043" letter-spacing="0em">
                    <tspan x="517.076" y="551.04">6</tspan>
                </text>
            </g>
            <g id="Group_9">
                <path id="Vector_8"
                    d="M430.485 561.218C437.99 560.229 445.371 558.827 452.628 557.012L438.402 497.884C433.042 499.203 428.011 500.151 423.311 500.728L430.485 561.218ZM457.205 492.07C451.597 494.214 446.195 495.946 441 497.265L455.225 556.394C463.72 554.25 471.637 551.734 478.976 548.848L457.205 492.07ZM480.584 552.807C472.255 556.023 464.09 558.58 456.091 560.476L472.791 629.501C483.842 626.78 494.892 623.316 505.943 619.11L480.584 552.807ZM453.494 561.218C446.484 562.867 438.979 564.228 430.98 565.3L439.268 635.81C449.411 634.573 459.72 632.718 470.194 630.244L453.494 561.218Z"
                    fill="#F6F8F9" stroke="#F6F8F9" stroke-width="0.920214" />
                <text id="7" fill="black" xml:space="preserve" style="white-space: pre" font-family="Inter"
                    font-size="18.4043" letter-spacing="0em">
                    <tspan x="464.626" y="569.409">7</tspan>
                </text>
            </g>
            <g id="Group_10">
                <path id="Vector_9"
                    d="M401.416 502.213C396.056 502.213 390.53 501.842 384.84 501.1L377.665 561.589C385.5 562.496 393.416 562.991 401.416 563.073V502.213ZM401.416 567.155C393.251 567.155 385.17 566.661 377.17 565.671L368.759 636.181C379.809 637.418 390.695 638.078 401.416 638.16V567.155ZM420.713 501.1C414.94 501.842 409.374 502.213 404.014 502.213V563.073C412.095 562.991 420.053 562.496 427.888 561.589L420.713 501.1ZM404.014 567.155V638.16C414.817 638.078 425.743 637.418 436.794 636.181L428.259 565.671C420.26 566.661 412.178 567.155 404.014 567.155Z"
                    fill="#F6F8F9" stroke="#F6F8F9" stroke-width="0.920214" />
                <text id="8" fill="black" xml:space="preserve" style="white-space: pre" font-family="Inter"
                    font-size="18.4043" letter-spacing="0em">
                    <tspan x="402.776" y="575.099">8</tspan>
                </text>
            </g>
            <g id="Group_11">
                <path id="Vector_10"
                    d="M374.943 561.218L382.242 500.728C377.541 500.151 372.511 499.203 367.151 497.884L352.801 557.012C360.141 558.827 367.521 560.229 374.943 561.218ZM364.553 497.265C359.358 495.946 353.956 494.214 348.348 492.07L326.577 548.848C333.916 551.734 341.833 554.25 350.327 556.394L364.553 497.265ZM349.337 560.476C341.42 558.58 333.297 556.023 324.968 552.807L299.61 619.11C310.66 623.316 321.711 626.78 332.761 629.501L349.337 560.476ZM374.449 565.3C366.449 564.228 358.945 562.867 351.935 561.218L335.236 630.244C345.709 632.718 356.017 634.573 366.161 635.81L374.449 565.3Z"
                    fill="#F6F8F9" stroke="#F6F8F9" stroke-width="0.920214" />
                <text id="9" fill="black" xml:space="preserve" style="white-space: pre" font-family="Inter"
                    font-size="18.4043" letter-spacing="0em">
                    <tspan x="340.926" y="569.409">9</tspan>
                </text>
            </g>
            <g id="Group_12">
                <path id="Vector_11"
                    d="M301.96 537.591C308.64 541.22 316.021 544.683 324.103 547.982L345.874 491.08C340.431 488.936 335.401 486.585 330.782 484.029L301.96 537.591ZM313.093 473.02L276.478 521.387C283.735 526.912 291.446 531.901 299.61 536.354L328.432 482.792C323.237 479.906 318.124 476.648 313.093 473.02ZM273.88 524.851L231.08 581.381C241.801 589.381 252.81 596.432 264.107 602.534L297.631 539.942C289.467 535.489 281.55 530.458 273.88 524.851ZM322.495 551.817C314.495 548.601 306.991 545.096 299.981 541.302L266.334 603.895C276.23 609.256 286.498 613.997 297.136 618.121L322.495 551.817Z"
                    fill="#F6F8F9" stroke="#F6F8F9" stroke-width="0.920214" />
                <text id="10" fill="black" xml:space="preserve" style="white-space: pre" font-family="Inter"
                    font-size="18.4043" letter-spacing="0em">
                    <tspan x="288.477" y="551.04">10</tspan>
                </text>
            </g>
            <g id="Group_13">
                <path id="Vector_12"
                    d="M310.99 471.411C307.197 468.525 303.692 465.598 300.476 462.628L259.531 507.532C263.984 511.655 268.891 515.779 274.251 519.903L310.99 471.411ZM298.497 460.773C294.291 456.897 290.415 452.815 286.869 448.527L240.481 487.863C245.924 494.379 251.614 500.358 257.552 505.8L298.497 460.773ZM254.706 508.893C248.356 502.955 242.542 496.853 237.265 490.585L183.083 536.602C190.423 545.178 198.381 553.425 206.958 561.342L254.706 508.893ZM271.777 523.242C266.417 519.201 261.386 514.995 256.686 510.625L208.937 563.198C215.122 568.888 221.802 574.454 228.976 579.897L271.777 523.242Z"
                    fill="#F6F8F9" stroke="#F6F8F9" stroke-width="0.920214" />
                <text id="11" fill="black" xml:space="preserve" style="white-space: pre" font-family="Inter"
                    font-size="18.4043" letter-spacing="0em">
                    <tspan x="247.038" y="519.681">11</tspan>
                </text>
            </g>
            <g id="Group_14">
                <path id="Vector_13"
                    d="M224.771 466.958L275.612 433.559C272.643 429.106 269.922 424.446 267.448 419.581L213.638 447.784C217.101 454.629 220.812 461.02 224.771 466.958ZM266.211 417.231C263.902 412.447 261.758 407.293 259.779 401.767L202.505 422.426C205.309 430.178 208.608 437.847 212.401 445.434L266.211 417.231ZM208.69 447.537C204.897 439.868 201.515 431.951 198.547 423.786L131.748 447.908C135.789 459.041 140.489 469.886 145.85 480.442L208.69 447.537ZM221.307 469.308C217.266 463.206 213.473 456.691 209.927 449.764L147.087 482.792C151.623 491.616 156.571 500.11 161.931 508.274L221.307 469.308Z"
                    fill="#F6F8F9" stroke="#F6F8F9" stroke-width="0.920214" />
                <text id="12" fill="black" xml:space="preserve" style="white-space: pre" font-family="Inter"
                    font-size="18.4043" letter-spacing="0em">
                    <tspan x="203.68" y="460.491">12</tspan>
                </text>
            </g>
            <g id="Group_15">
                <path id="Vector_14"
                    d="M258.789 399.294C257.14 394.181 255.738 389.274 254.583 384.573L195.701 399.912C197.351 406.592 199.33 413.272 201.639 419.952L258.789 399.294ZM254.088 381.975C253.099 377.605 252.315 373.193 251.738 368.74L191.372 375.172C192.361 383.089 193.598 390.47 195.083 397.314L254.088 381.975ZM191.124 398.304C189.475 390.965 188.155 383.378 187.166 375.543L116.533 382.965C117.769 393.851 119.707 404.943 122.347 416.24L191.124 398.304ZM197.681 421.313C195.372 414.88 193.392 408.077 191.743 400.902L122.965 418.838C125.027 427.415 127.666 436.28 130.882 445.434L197.681 421.313Z"
                    fill="#D4B9FF" stroke="#D4B9FF" stroke-width="0.920214" />
                <text id="13" fill="black" xml:space="preserve" style="white-space: pre" font-family="Inter"
                    font-size="18.4043" letter-spacing="0em">
                    <tspan x="187.661" y="412.556">13</tspan>
                </text>
            </g>
            <g id="Group_16">
                <path id="Vector_15"
                    d="M251.491 366.142C250.995 360.782 250.748 355.875 250.748 351.421H189.888C189.888 357.937 190.259 364.946 191.001 372.45L251.491 366.142ZM186.795 372.945C186.053 365.358 185.681 358.184 185.681 351.421H114.678C114.76 361.565 115.296 371.213 116.285 380.368L186.795 372.945ZM191.001 327.671C190.259 335.175 189.888 342.226 189.888 348.824H250.748C250.748 344.288 250.995 339.381 251.491 334.103L191.001 327.671ZM116.285 319.754C115.296 328.991 114.76 338.68 114.678 348.824H185.681C185.681 342.061 186.053 334.845 186.795 327.176L116.285 319.754Z"
                    fill="#F6F8F9" stroke="#F6F8F9" stroke-width="0.920214" />
                <text id="14" fill="black" xml:space="preserve" style="white-space: pre" font-family="Inter"
                    font-size="18.4043" letter-spacing="0em">
                    <tspan x="183.083" y="355.53">14</tspan>
                </text>
            </g>
            <g id="Group_17">
                <g id="Group_18">
                    <path id="Vector_16"
                        d="M196.131 297.224C198.063 289.84 200.28 282.771 202.781 276.016L259.695 297.136C257.885 302.123 256.292 307.313 254.915 312.708L196.131 297.224ZM190.993 324.428C191.998 316.328 193.486 308.116 195.455 299.792L254.36 315.248C253.169 320.346 252.2 325.858 251.453 331.784L190.993 324.428ZM191.515 298.671C189.447 306.933 187.926 315.365 186.951 323.967L116.462 315.501C117.893 303.748 119.991 292.138 122.757 280.668L191.515 298.671ZM198.879 274.507C196.334 281.44 194.065 288.648 192.071 296.131L123.462 278.222C125.956 268.508 128.895 259.072 132.278 249.913L198.879 274.507Z"
                        fill="#F6F8F9" stroke="#F6F8F9" stroke-width="0.919892" />
                </g>
                <text id="15" fill="black" xml:space="preserve" style="white-space: pre" font-family="Inter"
                    font-size="18.4043" letter-spacing="0em">
                    <tspan x="185.009" y="298.104">15</tspan>
                </text>
            </g>
            <g id="Group_19">
                <g id="Group_20">
                    <path id="Vector_17"
                        d="M708.213 451.749C714.148 432.526 718.429 416.558 721.056 403.848L691.235 398.768C688.391 411.241 684.357 425.941 679.132 442.867L708.213 451.749ZM773.718 414.007L729.938 407.022C726.886 418.958 722.329 434.749 716.265 454.397L760.915 468.126C767.81 445.674 772.5 427.846 774.987 414.642L773.718 414.007Z"
                        fill="#F6F8F9" stroke="#F6F8F9" stroke-width="0.920023" />
                </g>
                <text id="27" fill="black" xml:space="preserve" style="white-space: pre" font-family="Inter"
                    font-size="18.4043" letter-spacing="0em">
                    <tspan x="727.729" y="438.755">27</tspan>
                </text>
            </g>
            <g id="Group_21">
                <g id="Group_22">
                    <path id="Vector_18"
                        d="M658.542 495.473L685.528 509.426C694.359 492.481 701.61 474.707 707.28 456.105L678.009 447.619C673.082 463.821 666.593 479.772 658.542 495.473ZM715.372 458.487C709.581 477.517 702.136 495.809 693.037 513.363L734.607 534.614C744.941 514.606 753.463 493.545 760.172 471.431L715.372 458.487Z"
                        fill="#F6F8F9" stroke="#F6F8F9" stroke-width="0.920697" />
                </g>
                <text id="28" fill="black" xml:space="preserve" style="white-space: pre" font-family="Inter"
                    font-size="18.4043" letter-spacing="0em">
                    <tspan x="709.392" y="496.331">28</tspan>
                </text>
            </g>
            <g id="Group_23">
                <g id="Group_24">
                    <path id="Vector_19"
                        d="M682.523 513.047L655.798 498.172C646.873 513.603 636.677 528.006 625.209 541.382L648.312 561.224C661.234 546.175 672.637 530.116 682.523 513.047ZM730.56 539.948L689.88 517.121C679.541 534.801 667.798 551.339 654.653 566.734L690.033 597.129C705.245 579.355 718.754 560.295 730.56 539.948Z"
                        fill="#F6F8F9" stroke="#F6F8F9" stroke-width="0.92063" />
                </g>
                <text id="29" fill="black" xml:space="preserve" style="white-space: pre" font-family="Inter"
                    font-size="18.4043" letter-spacing="0em">
                    <tspan x="677.794" y="552.668">29</tspan>
                </text>
            </g>
            <g id="Group_25">
                <g id="Group_26">
                    <path id="Vector_20"
                        d="M644.435 567.958L621.741 547.464C609.579 560.492 596.41 572.233 582.233 582.688L600.282 607.208C616.252 595.45 630.969 582.366 644.435 567.958ZM685.191 604.957L650.687 573.58C636.643 588.482 621.488 601.955 605.223 614.002L632.863 651.56C651.676 637.661 669.118 622.127 685.191 604.957Z"
                        fill="#F6F8F9" stroke="#F6F8F9" stroke-width="0.920435" />
                </g>
                <text id="30" fill="black" xml:space="preserve" style="white-space: pre" font-family="Inter"
                    font-size="18.4043" letter-spacing="0em">
                    <tspan x="632.101" y="605.977">30</tspan>
                </text>
            </g>
            <g id="Group_27">
                <g id="Group_28">
                    <path id="Vector_21"
                        d="M532.273 645.821C553.043 635.638 571.435 624.822 587.448 613.372L569.754 588.628C555.757 598.769 539.232 608.548 520.18 617.963L532.273 645.821ZM592.391 620.252C576.139 631.957 557.151 643.458 535.427 654.756L554.881 696.279C579.02 684.393 600.626 671.641 619.698 658.022L592.391 620.252Z"
                        fill="#F6F8F9" stroke="#F6F8F9" stroke-width="0.919858" />
                </g>
                <text id="31" fill="black" xml:space="preserve" style="white-space: pre" font-family="Inter"
                    font-size="18.4043" letter-spacing="0em">
                    <tspan x="570.318" y="648.027">31</tspan>
                </text>
            </g>
            <g id="Group_29">
                <g id="Group_30">
                    <path id="Vector_22"
                        d="M461.679 636.641L468.125 666.477C487.189 662.11 505.851 655.977 524.112 648.077L512.005 620.071C495.709 627.112 478.933 632.636 461.679 636.641ZM546.006 698.561L527.585 655.814C508.914 663.885 489.678 670.193 469.874 674.737L479.68 720.228C502.362 715.141 524.47 707.919 546.006 698.561Z"
                        fill="#F6F8F9" stroke="#F6F8F9" stroke-width="0.920347" />
                </g>
                <text id="32" fill="black" xml:space="preserve" style="white-space: pre" font-family="Inter"
                    font-size="18.4043" letter-spacing="0em">
                    <tspan x="504.128" y="675.035">32</tspan>
                </text>
            </g>
            <g id="Group_31">
                <path id="Vector_23"
                    d="M404.014 642.985V673.414C424.548 673.332 444.917 671.312 465.121 667.354L459.184 637.417C441.206 641.046 422.816 642.902 404.014 642.985ZM405.25 681.826V728.462C428.671 728.379 452.133 726.029 475.636 721.411L466.606 675.641C446.236 679.6 425.785 681.662 405.25 681.826Z"
                    fill="#F6F8F9" stroke="#F6F8F9" stroke-width="0.920214" />
                <text id="33" fill="black" xml:space="preserve" style="white-space: pre" font-family="Inter"
                    font-size="18.4043" letter-spacing="0em">
                    <tspan x="439.825" y="688.409">33</tspan>
                </text>
            </g>
            <g id="Group_32">
                <path id="Vector_24"
                    d="M400.89 673.414V642.985C382.087 642.902 364.897 641.373 349.318 638.397L344.06 669.422C361.494 672.001 380.438 673.332 400.89 673.414ZM399.776 681.826C379.242 681.662 360.495 680.156 343.535 677.31L334.595 722.005C354.546 726.227 376.273 728.379 399.776 728.462V681.826Z"
                    fill="#D4B9FF" stroke="#D4B9FF" stroke-width="0.920214" />
                <text id="34" fill="black" xml:space="preserve" style="white-space: pre" font-family="Inter"
                    font-size="18.4043" letter-spacing="0em">
                    <tspan x="367.743" y="688.899">34</tspan>
                </text>
            </g>
            <g id="Group_33">
                <path id="Vector_25"
                    d="M340.651 667.307L346.589 637.372C329.27 633.66 312.447 628.423 296.119 621.662L284.367 649.865C302.84 657.452 321.601 663.266 340.651 667.307ZM281.15 657.659L263.338 700.706C285.109 709.695 307.375 716.54 330.136 721.241L339.043 675.594C319.25 671.389 299.953 665.41 281.15 657.659Z"
                    fill="#F6F8F9" stroke="#F6F8F9" stroke-width="0.920214" />
                <text id="35" fill="black" xml:space="preserve" style="white-space: pre" font-family="Inter"
                    font-size="18.4043" letter-spacing="0em">
                    <tspan x="304.963" y="676.92">35</tspan>
                </text>
            </g>
            <g id="Group_34">
                <path id="Vector_26"
                    d="M279.88 649.572L291.508 621.492C275.18 614.4 258.514 605.619 241.509 595.15L224.451 620.288C243.591 632.141 262.068 641.903 279.88 649.572ZM220.412 627.47L191.683 664.727C207.732 676.27 230.121 688.206 258.852 700.537L276.664 657.365C258.109 649.448 239.508 639.633 220.861 627.919L220.412 627.47Z"
                    fill="#F6F8F9" stroke="#F6F8F9" stroke-width="0.920214" />
                <text id="36" fill="black" xml:space="preserve" style="white-space: pre" font-family="Inter"
                    font-size="18.4043" letter-spacing="0em">
                    <tspan x="241.596" y="653.313">36</tspan>
                </text>
            </g>
            <g id="Group_35">
                <g id="Group_36">
                    <path id="Vector_27"
                        d="M199.758 557.539L176.902 577.663C189.489 591.37 203.209 603.938 218.062 615.367L236.31 590.915C223.206 580.816 211.022 569.69 199.758 557.539ZM185.157 659.502L213.006 622.043C197.754 610.345 183.639 597.425 170.662 583.285L135.839 614.309C150.925 630.79 167.364 645.854 185.157 659.502Z"
                        fill="#F6F8F9" stroke="#F6F8F9" stroke-width="0.920538" />
                </g>
                <text id="37" fill="black" xml:space="preserve" style="white-space: pre" font-family="Inter"
                    font-size="18.4043" letter-spacing="0em">
                    <tspan x="185.391" y="613.511">37</tspan>
                </text>
            </g>
            <g id="Group_37">
                <g id="Group_38">
                    <g id="Vector_28">
                        <path
                            d="M155.866 503.937L130.194 520.192C141.439 539.573 153.776 556.551 167.205 571.126L189.581 550.505C177.662 537.55 166.281 522.17 155.438 504.364M161.066 576.851C147.319 561.934 134.318 544.188 122.065 523.614L81.4165 547.14C95.7781 570.786 110.865 591.217 126.676 608.433L161.066 576.851Z"
                            fill="#D4B9FF" />
                        <path
                            d="M155.866 503.937L130.194 520.192C141.439 539.573 153.776 556.551 167.205 571.126L189.581 550.505C177.662 537.55 166.281 522.17 155.438 504.364M161.066 576.851C147.319 561.934 134.318 544.188 122.065 523.614L81.4165 547.14C95.7781 570.786 110.865 591.217 126.676 608.433L161.066 576.851Z"
                            stroke="#D4B9FF" stroke-width="0.919858" />
                    </g>
                </g>
                <text id="38" fill="black" xml:space="preserve" style="white-space: pre" font-family="Inter"
                    font-size="18.4043" letter-spacing="0em">
                    <tspan x="135.455" y="561.671">38</tspan>
                </text>
            </g>
            <g id="Group_39">
                <g id="Group_40">
                    <g id="Vector_29">
                        <path
                            d="M123.805 517.527L151.503 501.127C140.984 482.132 132.835 464.677 127.054 448.763L98.2808 458.789C104.934 476.979 113.584 496.553 124.233 517.512M46.287 476.899C54.1602 498.622 64.3067 520.715 76.7264 543.179L117.064 520.764C106.032 500.011 97.1202 480.289 90.3281 461.597L46.287 476.899Z"
                            fill="#F6F8F9" />
                        <path
                            d="M123.805 517.527L151.503 501.127C140.984 482.132 132.835 464.677 127.054 448.763L98.2808 458.789C104.934 476.979 113.584 496.553 124.233 517.512M46.287 476.899C54.1602 498.622 64.3067 520.715 76.7264 543.179L117.064 520.764C106.032 500.011 97.1202 480.289 90.3281 461.597L46.287 476.899Z"
                            stroke="#F6F8F9" stroke-width="0.920538" />
                    </g>
                </g>
                <text id="39" fill="black" xml:space="preserve" style="white-space: pre" font-family="Inter"
                    font-size="18.4043" letter-spacing="0em">
                    <tspan x="98.2173" y="501.146">39</tspan>
                </text>
            </g>
            <g id="Group_41">
                <g id="Group_42">
                    <g id="Vector_30">
                        <path
                            d="M82.2017 402.419C84.5247 419.659 89.2455 437.062 96.364 454.627L124.435 443.724C117.861 426.583 113.895 411.155 112.537 397.442L82.6985 402.917M73.2506 405.404L29.4875 410.881C30.8171 432.431 35.8905 453.271 44.7076 473.403L87.1667 458.072C79.8811 440.532 75.5739 423.141 74.2452 405.901L73.2506 405.404Z"
                            fill="#F6F8F9" />
                        <path
                            d="M82.2017 402.419C84.5247 419.659 89.2455 437.062 96.364 454.627L124.435 443.724C117.861 426.583 113.895 411.155 112.537 397.442L82.6985 402.917M73.2506 405.404L29.4875 410.881C30.8171 432.431 35.8905 453.271 44.7076 473.403L87.1667 458.072C79.8811 440.532 75.5739 423.141 74.2452 405.901L73.2506 405.404Z"
                            stroke="#F6F8F9" stroke-width="0.920023" />
                    </g>
                </g>
                <text id="40" fill="black" xml:space="preserve" style="white-space: pre" font-family="Inter"
                    font-size="18.4043" letter-spacing="0em">
                    <tspan x="76.2417" y="440.84">40</tspan>
                </text>
            </g>
            <g id="Group_43">
                <g id="Group_44">
                    <path id="Vector_31"
                        d="M112.168 393.739C109.105 378.596 107.906 363.062 108.573 347.138L79.2127 348.127C79.2086 365.378 80.1023 381.777 81.8938 397.323L112.168 393.739ZM70.7527 348.125L24.4728 347.12C23.1413 367.025 24.059 385.914 27.2262 403.785L73.5181 398.224C70.6749 384.066 69.9188 367.699 71.2495 349.121L70.7527 348.125Z"
                        fill="#F6F8F9" stroke="#F6F8F9" stroke-width="0.92063" />
                </g>
                <text id="41" fill="black" xml:space="preserve" style="white-space: pre" font-family="Inter"
                    font-size="18.4043" letter-spacing="0em">
                    <tspan x="67.96" y="380.65">41</tspan>
                </text>
            </g>
            <g id="Group_45">
                <g id="Group_46">
                    <path id="Vector_32"
                        d="M78.4401 342.579L108.797 342.91C108.575 329.336 109.955 314.756 112.936 299.172L84.0892 292.711C80.7763 311.279 78.8933 327.902 78.4401 342.579ZM70.0364 342.432C69.7926 326.859 71.4928 309.623 75.1372 290.723L29.8772 281.777C25.5703 304.655 23.3837 324.666 23.3173 341.808L70.0364 342.432Z"
                        fill="#F6F8F9" stroke="#F6F8F9" stroke-width="0.920086" />
                </g>
                <text id="42" fill="black" xml:space="preserve" style="white-space: pre" font-family="Inter"
                    font-size="18.4043" letter-spacing="0em">
                    <tspan x="65.2563" y="323.903">42</tspan>
                </text>
            </g>
            <g id="Group_47">
                <g id="Group_48">
                    <path id="Vector_33"
                        d="M82.4998 283.83L112.764 290.266C116.108 276.516 121.318 262.073 128.393 246.939L101.249 234.617C93.0584 252.698 86.8089 269.102 82.4998 283.83ZM74.1362 281.992C77.9832 266.22 84.2113 249.16 92.8205 230.811L49.9187 212.682C39.6018 234.915 33.0728 255.635 30.3316 274.843L74.1362 281.992Z"
                        fill="#F6F8F9" stroke="#F6F8F9" stroke-width="0.919977" />
                </g>
                <text id="43" fill="black" xml:space="preserve" style="white-space: pre" font-family="Inter"
                    font-size="18.4043" letter-spacing="0em">
                    <tspan x="75.7192" y="262.208">43</tspan>
                </text>
            </g>
            <g id="Group_49">
                <path id="Vector_34" d="M271.032 382.376H532.685C485.928 520.795 307.905 514.964 271.032 382.376Z"
                    fill="#D4B9FF" stroke="#D4B9FF" stroke-width="0.920214" />
                <text id="C" fill="black" xml:space="preserve" style="white-space: pre" font-family="Inter"
                    font-size="18.4043" letter-spacing="0em">
                    <tspan x="401.858" y="438.666">C</tspan>
                </text>
            </g>
            <g id="Group_50">
                <g id="Group_51">
                    <g id="Vector_35">
                        <path
                            d="M693.093 303.181C696.061 316.72 697.159 330.174 696.387 343.542L727.573 344.072C727.92 323.622 727.428 307.659 726.095 296.184L692.457 302.546M774.329 287.276L732.441 295.546C735.242 306.779 736.554 322.58 736.377 342.949L784.237 343.762C783.562 320.066 780.683 301.237 775.599 287.275L774.329 287.276Z"
                            fill="#F6F8F9" />
                        <path
                            d="M693.093 303.181C696.061 316.72 697.159 330.174 696.387 343.542L727.573 344.072C727.92 323.622 727.428 307.659 726.095 296.184L692.457 302.546M774.329 287.276L732.441 295.546C735.242 306.779 736.554 322.58 736.377 342.949L784.237 343.762C783.562 320.066 780.683 301.237 775.599 287.275L774.329 287.276Z"
                            stroke="#F6F8F9" stroke-width="0.920347" />
                    </g>
                </g>
                <text id="25" fill="black" xml:space="preserve" style="white-space: pre" font-family="Inter"
                    font-size="18.4043" letter-spacing="0em">
                    <tspan x="738.136" y="321.289">25</tspan>
                </text>
            </g>
            <g id="Group_52">
                <g id="Group_53">
                    <g id="Vector_36">
                        <path
                            d="M698.483 352.176C697.779 362.129 695.937 376.015 692.957 393.834L722.809 399.107C726.267 379.53 727.469 363.467 726.414 350.915L697.848 352.176M781.006 350.933L734.666 352.187C735.791 364.121 734.713 379.85 731.432 399.374L777.245 407.467C782.897 393.464 782.271 367.438 781.641 351.567L781.006 350.933Z"
                            fill="#F6F8F9" />
                        <path
                            d="M698.483 352.176C697.779 362.129 695.937 376.015 692.957 393.834L722.809 399.107C726.267 379.53 727.469 363.467 726.414 350.915L697.848 352.176M781.006 350.933L734.666 352.187C735.791 364.121 734.713 379.85 731.432 399.374L777.245 407.467C782.897 393.464 782.271 367.438 781.641 351.567L781.006 350.933Z"
                            stroke="#F6F8F9" stroke-width="0.920444" />
                    </g>
                </g>
                <text id="26" fill="black" xml:space="preserve" style="white-space: pre" font-family="Inter"
                    font-size="18.4043" letter-spacing="0em">
                    <tspan x="739.269" y="377.827">26</tspan>
                </text>
            </g>
            <g id="Group_54">
                <path id="Vector_37"
                    d="M720.72 292.239C716.762 273.189 710.989 254.345 703.402 235.707L675.198 247.212C681.878 263.54 687.073 280.487 690.785 298.053L720.72 292.239ZM729.008 290.755L774.777 282.095C770.077 259.087 763.315 236.697 754.49 214.925L711.195 232.491C718.947 251.541 724.885 270.962 729.008 290.755Z"
                    fill="#F6F8F9" stroke="#F6F8F9" stroke-width="0.920214" />
                <text id="24" fill="black" xml:space="preserve" style="white-space: pre" font-family="Inter"
                    font-size="18.4043" letter-spacing="0em">
                    <tspan x="724.987" y="261.959">24</tspan>
                </text>
            </g>
            <g id="Group_55">
                <g id="Group_56">
                    <g id="Vector_38">
                        <path
                            d="M698.166 223.644C691.284 205.441 679.17 182.911 661.825 156.055L635.826 176.618C651.867 198.136 664.13 218.355 672.615 237.276L699.693 224.294M706.124 220.885L749.992 205.19C740.305 171.013 724.277 142.73 701.908 120.34L666.159 150.643C685.64 178.56 698.962 201.974 706.124 220.885Z"
                            fill="#F6F8F9" />
                        <path
                            d="M698.166 223.644C691.284 205.441 679.17 182.911 661.825 156.055L635.826 176.618C651.867 198.136 664.13 218.355 672.615 237.276L699.693 224.294M706.124 220.885L749.992 205.19C740.305 171.013 724.277 142.73 701.908 120.34L666.159 150.643C685.64 178.56 698.962 201.974 706.124 220.885Z"
                            stroke="#F6F8F9" stroke-width="0.920435" />
                    </g>
                </g>
                <text id="23" fill="black" xml:space="preserve" style="white-space: pre" font-family="Inter"
                    font-size="18.4043" letter-spacing="0em">
                    <tspan x="690.752" y="183.213">23</tspan>
                </text>
            </g>
            <g id="Group_57">
                <text id="23_2" transform="translate(117.044 172.933) rotate(22.0248)" fill="black" xml:space="preserve"
                    style="white-space: pre" font-family="Inter" font-size="11.0426" letter-spacing="0em">
                    <tspan x="0" y="11.8636">23</tspan>
                </text>
            </g>
            <g id="Group_58">
                <g id="Group_59">
                    <g id="Vector_39">
                        <path
                            d="M104.239 223.496C112.381 205.832 126.042 184.224 145.223 158.67L169.695 180.997C152.191 201.322 138.544 220.617 128.754 238.882L102.673 224.036M96.5011 220.185L53.8697 201.454C65.9318 168.063 83.8999 140.994 107.774 120.246L141.283 152.97C119.898 179.43 104.97 201.836 96.5011 220.185Z"
                            fill="#F6F8F9" />
                        <path
                            d="M104.239 223.496C112.381 205.832 126.042 184.224 145.223 158.67L169.695 180.997C152.191 201.322 138.544 220.617 128.754 238.882L102.673 224.036M96.5011 220.185L53.8697 201.454C65.9318 168.063 83.8999 140.994 107.774 120.246L141.283 152.97C119.898 179.43 104.97 201.836 96.5011 220.185Z"
                            stroke="#F6F8F9" stroke-width="0.919892" />
                    </g>
                </g>
                <text id="44" fill="black" xml:space="preserve" style="white-space: pre" font-family="Inter"
                    font-size="18.4043" letter-spacing="0em">
                    <tspan x="114.807" y="184.296">44</tspan>
                </text>
            </g>
            <g id="Group_60">
                <path id="Vector_40" d="M272.071 220.297H393.686V362.609H272.071V220.297Z" fill="#D4B9FF"
                    stroke="#D4B9FF" stroke-width="0.920214" />
                <text id="A" fill="black" xml:space="preserve" style="white-space: pre" font-family="Inter"
                    font-size="18.4043" letter-spacing="0em">
                    <tspan x="332.878" y="296.923">A</tspan>
                </text>
            </g>
            <g id="Group_61">
                <path id="Vector_41" d="M410.644 220.947H532.26V363.259H410.644V220.947Z" fill="#D4B9FF"
                    stroke="#D4B9FF" stroke-width="0.920214" />
                <text id="B" fill="black" xml:space="preserve" style="white-space: pre" font-family="Inter"
                    font-size="18.4043" letter-spacing="0em">
                    <tspan x="471.452" y="297.573">B</tspan>
                </text>
            </g>
            <text id="STAGE" fill="white" xml:space="preserve" style="white-space: pre" font-family="Inter"
                font-size="27.1656" letter-spacing="0em">
                <tspan x="407.184" y="169.982">STAGE</tspan>
            </text>
        </g>
    </g>
</svg>